<?xml version="1.0" standalone="no"?>
<!DOCTYPE svg PUBLIC "-//W3C//DTD SVG 20010904//EN"
 "http://www.w3.org/TR/2001/REC-SVG-20010904/DTD/svg10.dtd">
<svg version="1.0" xmlns="http://www.w3.org/2000/svg"
 width="640.000000pt" height="1280.000000pt" viewBox="0 0 640.000000 1280.000000"
 preserveAspectRatio="xMidYMid meet">
<g transform="translate(0.000000,1280.000000) scale(0.100000,-0.100000)"
fill="#000000" stroke="none">
<path d="M1713 12021 l-952 -779 47 -5 c26 -4 254 -27 507 -53 253 -26 461
-48 463 -49 1 -1 -34 -118 -78 -260 -44 -141 -80 -263 -80 -270 0 -7 20 -15
50 -19 45 -6 50 -9 45 -29 -25 -104 -38 -249 -41 -457 -5 -264 3 -349 40 -424
30 -61 76 -250 76 -312 0 -24 -10 -126 -22 -226 -30 -252 -30 -477 0 -615 91
-418 288 -691 621 -858 95 -47 298 -115 367 -122 41 -4 54 -10 54 -22 0 -26
-12 -38 -80 -82 -102 -65 -208 -179 -259 -279 -32 -62 -69 -111 -134 -180
-251 -266 -387 -487 -473 -771 -40 -132 -87 -440 -129 -839 -37 -367 -96
-1080 -90 -1090 4 -6 17 -10 31 -10 34 0 30 -10 -19 -57 -31 -30 -53 -42 -86
-47 -110 -17 -221 -107 -260 -212 l-21 -55 27 -24 c60 -53 111 -70 210 -70 51
0 93 -4 93 -8 0 -5 -33 -72 -74 -150 -85 -163 -107 -238 -79 -270 64 -72 165
-97 231 -57 18 11 33 20 35 20 1 0 1 -40 -1 -89 l-3 -88 46 -5 c93 -11 161 20
217 96 l30 41 -6 -45 c-10 -73 -45 -559 -56 -770 -8 -168 -6 -421 5 -456 2 -8
36 5 88 32 73 38 276 114 305 114 5 0 11 -40 14 -93 3 -82 7 -99 37 -151 18
-32 31 -59 29 -60 -2 0 -14 -10 -28 -21 l-25 -20 23 26 c12 14 20 28 17 31 -3
3 -36 3 -73 1 -73 -4 -229 10 -362 33 -47 8 -128 22 -180 30 -259 40 -478 -39
-602 -218 -53 -75 -62 -96 -83 -171 -41 -145 7 -300 127 -413 99 -92 230 -152
443 -203 50 -12 106 -26 125 -31 35 -9 96 -23 180 -41 25 -6 61 -14 80 -19 63
-17 204 -49 239 -55 19 -3 37 -7 40 -9 3 -2 29 -7 56 -10 28 -4 57 -9 65 -11
42 -11 211 -30 405 -45 177 -13 348 -30 365 -35 39 -11 275 -15 355 -6 125 14
122 14 325 71 96 28 312 102 365 125 235 105 390 307 411 535 5 54 2 80 -15
132 -22 66 -46 108 -61 108 -5 0 -10 -17 -12 -38 -2 -20 -6 34 -10 121 l-8
159 30 42 29 43 -33 120 -32 120 160 -5 c228 -7 307 14 409 108 l51 47 -21 29
c-36 51 -72 130 -93 205 -20 74 -64 300 -58 303 2 0 20 10 40 20 l38 19 112
-38 c166 -55 323 -119 499 -200 l157 -72 35 71 c39 79 57 159 56 250 0 59 -21
212 -30 219 -2 2 -133 57 -291 123 l-287 119 -20 55 c-11 30 -26 73 -34 95 -8
24 -12 64 -9 99 l4 59 47 -6 c56 -7 170 6 245 28 l53 16 0 97 c1 102 27 249
104 591 77 337 110 517 116 621 l6 106 -51 149 c-92 274 -392 1021 -585 1460
-54 121 -70 147 -122 201 -65 65 -151 114 -245 137 -52 13 -57 18 -89 73 -19
33 -78 102 -130 154 -142 142 -269 211 -461 253 l-95 21 -37 76 c-33 69 -108
188 -157 250 l-19 25 98 88 c105 92 190 190 260 297 44 68 144 270 174 352
l18 48 67 -6 67 -7 71 194 c273 748 402 1336 378 1727 -5 96 -4 112 9 112 8 0
17 4 20 8 2 4 -53 185 -124 402 l-129 393 73 81 c41 45 239 261 440 481 201
220 360 401 354 402 -7 1 -177 16 -378 33 -201 17 -520 44 -710 60 -190 16
-507 43 -705 60 -198 16 -544 46 -770 65 -225 19 -417 35 -425 35 -8 0 -443
-350 -967 -779z m1797 -9753 c0 -7 -6 -35 -13 -63 l-13 -50 -12 47 c-16 61
-15 66 6 71 29 8 32 7 32 -5z m36 -425 c-11 -13 -20 -22 -21 -20 -1 1 -5 23
-7 49 l-6 48 27 -28 c27 -27 27 -27 7 -49z"/>
<path d="M3530 1854 c0 -8 5 -12 10 -9 6 3 10 10 10 16 0 5 -4 9 -10 9 -5 0
-10 -7 -10 -16z"/>
</g>
</svg>
